<?xml version="1.0" encoding="UTF-8"?>
<svg id="Layer_1" data-name="Layer 1" xmlns="http://www.w3.org/2000/svg" version="1.1" viewBox="0 0 500 500">
  <defs>
    <style>
      .cls-1 {
        fill: #fff;
      }

      .cls-1, .cls-2, .cls-3 {
        fill-rule: evenodd;
        stroke-width: 0px;
      }

      .cls-2 {
        fill: #231f20;
      }

      .cls-3 {
        fill: #f48120;
      }

      .cls-4 {
        fill: none;
        stroke: #fff;
        stroke-miterlimit: 2.61;
        stroke-width: .5px;
      }
    </style>
  </defs>
  <path class="cls-3" d="M322.46,227.24c2.26,7.18-2.56,13.18-2.56,21.11,0,39.6-29.14,68.61-63.13,77.03-2.14.18-4.3.27-6.48.27-41.78,0-75.65-33.87-75.65-75.65,0-9.44,1.73-18.47,4.89-26.8l70.93,100.85,70.88-95.31,1.12-1.5ZM250.29,174.35c25.33,0,47.74,12.45,61.47,31.56l-60.31,82.43-50.36-70.45h-19.31c12.08-25.72,38.21-43.53,68.51-43.53Z"/>
  <path class="cls-4" d="M322.46,227.24c2.26,7.18-2.56,13.18-2.56,21.11,0,39.6-29.14,68.61-63.13,77.03-2.14.18-4.3.27-6.48.27-41.78,0-75.65-33.87-75.65-75.65,0-9.44,1.73-18.47,4.89-26.8l70.93,100.85,70.88-95.31,1.12-1.5ZM250.29,174.35c25.33,0,47.74,12.45,61.47,31.56l-60.31,82.43-50.36-70.45h-19.31c12.08-25.72,38.21-43.53,68.51-43.53Z"/>
  <path class="cls-2" d="M321.93,228.29l-71.54,96.26c43.74,1.28,87.74-47.69,71.54-96.26"/>
  <path class="cls-1" d="M251.44,236.79c6.36,0,11.51,5.15,11.51,11.51s-5.15,11.51-11.51,11.51-11.51-5.15-11.51-11.51,5.15-11.51,11.51-11.51"/>
  <path class="cls-1" d="M216.91,220.76h69.87c.5-9.08-4.26-18.19-8.56-23.02-2.44-2.74-4.91-4.94-8.6-7.17-2.44-1.47-8.23-4.03-11.54-4.23l-.02,20.74-12.41.03-.04-20.76c-1.71.12-4.69,1.07-6.21,1.66-9.17,3.54-16.23,10.45-19.98,19.44-1.3,3.12-2.92,9.23-2.52,13.3"/>
  <path class="cls-1" d="M210.2,222.26c-1.96.4-1.77,2.07-1.76,4.08.02,2.27,1.03,2.71,3.21,2.7,19.3-.14,39.1,0,58.46,0,1.56,0,22.46.14,23.42-.06,1.85-.39,1.7-2.03,1.69-4.07-.02-2.29-.96-2.72-3.19-2.72-6.82.01-80.5-.2-81.83.08"/>
  <path class="cls-1" d="M246.9,187.08v17.63c-.02,1.43-.01,1.12,1.87,1.12l7.98-.02c.2-5.17.03-13.64.03-19.16,0-4.38-.12-3.78-6.86-3.77-1.19,0-2.26-.1-2.78.85-.37.68-.24,2.44-.23,3.35"/>
</svg>