<?xml version="1.0" encoding="UTF-8"?>
<svg id="Layer_1" data-name="Layer 1" xmlns="http://www.w3.org/2000/svg" version="1.1" viewBox="0 0 500 500">
  <defs>
    <style>
      .cls-1, .cls-2, .cls-3 {
        fill-rule: evenodd;
      }

      .cls-1, .cls-2, .cls-3, .cls-4, .cls-5 {
        stroke-width: 0px;
      }

      .cls-1, .cls-5 {
        fill: #fff;
      }

      .cls-2, .cls-4 {
        fill: #231f20;
      }

      .cls-3 {
        fill: #f48120;
      }
    </style>
  </defs>
  <path class="cls-2" d="M215.39,240.69h-5.97v4.19h10.19c1.59,0,2.67.33,3.27.97.54.67.82,1.87.82,3.62v2.68c0,1.76-.27,2.97-.82,3.63-.59.65-1.68.97-3.27.97h-10.1c-1.6,0-2.67-.33-3.23-.97-.56-.65-.85-1.85-.85-3.63v-.52l3.36-.83v2.3h11.55v-4.45h-10.19c-1.58,0-2.64-.33-3.2-.97-.56-.65-.85-1.85-.85-3.62v-2.16c0-1.77.28-2.97.85-3.61.55-.66,1.62-.99,3.2-.99h5.24v3.4Z"/>
  <polygon class="cls-2" points="238.07 240.76 238.07 256.76 234.27 256.76 234.27 240.76 226.77 240.76 226.77 237.29 245.6 237.29 245.6 240.76 238.07 240.76"/>
  <polygon class="cls-2" points="251.9 256.76 251.9 237.29 260.09 237.29 260.09 240.61 255.7 240.61 255.7 244.95 263.23 244.95 263.23 248.27 255.7 248.27 255.7 253.1 268.77 253.1 268.77 256.76 251.9 256.76"/>
  <path class="cls-2" d="M302.34,253.1h12.53v-12.34h-12.53v12.34ZM298.54,241.89c0-1.75.27-2.95.82-3.61.59-.66,1.66-.99,3.23-.99h12.03c1.59,0,2.65.33,3.19.99.57.64.86,1.85.86,3.61v10.26c0,1.77-.29,2.98-.86,3.63-.54.65-1.61.97-3.19.97h-12.03c-1.57,0-2.64-.33-3.23-.97-.54-.67-.82-1.87-.82-3.63v-10.26Z"/>
  <path class="cls-2" d="M325.07,256.76v-19.46h2.6l11.48,11.47c.47.42.82.77,1.05,1.05.21.26.49.61.82,1.06-.03-.56-.05-1-.07-1.32-.02-.32-.03-.65-.05-.98-.02-.3-.03-.65-.03-1.06v-10.22h3.42v19.46h-2.6l-11.99-12.04c-.34-.35-.6-.63-.77-.82-.27-.33-.47-.58-.59-.75.01.22.03.52.06.88.03.37.05.64.06.82.02.37.03.84.03,1.39v10.52h-3.42Z"/>
  <polygon class="cls-2" points="352.64 256.76 352.64 237.29 360.07 237.29 360.07 240.61 356.43 240.61 356.43 244.95 363.97 244.95 363.97 248.27 356.43 248.27 356.43 253.1 369.51 253.1 369.51 256.76 352.64 256.76"/>
  <polygon class="cls-3" points="268.84 238.72 273.47 238.72 281.93 250.27 295.58 231.62 300.49 231.62 281.75 256.82 268.84 238.72"/>
  <path class="cls-3" d="M197.24,239.74c1.02,3.24-1.15,5.94-1.15,9.51,0,17.85-13.13,30.92-28.45,34.72-.96.08-1.94.12-2.92.12-18.83,0-34.1-15.27-34.1-34.1,0-4.25.78-8.33,2.2-12.08l31.97,45.46,31.94-42.95.5-.68ZM164.71,215.9c11.41,0,21.52,5.61,27.71,14.22l-27.18,37.15-22.7-31.75h-8.7c5.44-11.59,17.22-19.62,30.88-19.62Z"/>
  <path class="cls-5" d="M164.71,284.22c-18.87,0-34.22-15.35-34.22-34.22,0-4.17.74-8.25,2.21-12.13l.09-.23.14.2,31.87,45.31,32.49-43.69.08.24c.6,1.91.12,3.63-.4,5.44-.37,1.29-.75,2.63-.75,4.11,0,8.46-2.94,16.31-8.51,22.71-5.13,5.89-12.24,10.2-20.04,12.13-.99.09-1.98.13-2.95.13ZM132.86,238.19c-1.4,3.78-2.11,7.75-2.11,11.81,0,18.73,15.24,33.97,33.97,33.97.96,0,1.94-.04,2.91-.12,13.64-3.38,28.33-15.65,28.33-34.59,0-1.52.38-2.87.76-4.18.48-1.7.94-3.3.47-5.05l-32.4,43.57-31.93-45.4ZM165.24,267.5l-22.76-31.84h-8.84l.09-.18c5.62-11.96,17.78-19.69,30.99-19.69,10.99,0,21.39,5.34,27.81,14.28l.05.08-.05.08-27.29,37.29ZM134.04,235.4h8.57l.04.05,22.59,31.61,27.02-36.93c-6.38-8.83-16.67-14.09-27.55-14.09-13.04,0-25.06,7.59-30.67,19.36Z"/>
  <path class="cls-2" d="M197,240.22l-32.24,43.39c19.71.58,39.54-21.5,32.24-43.39"/>
  <path class="cls-2" d="M282.02,240.93c1.27,0,2.3,1.03,2.3,2.3s-1.03,2.3-2.3,2.3-2.3-1.03-2.3-2.3,1.03-2.3,2.3-2.3"/>
  <path class="cls-1" d="M165.23,244.04c2.86,0,5.19,2.32,5.19,5.19s-2.32,5.19-5.19,5.19-5.19-2.32-5.19-5.19,2.32-5.19,5.19-5.19"/>
  <path class="cls-1" d="M149.67,236.82h31.49c.23-4.09-1.92-8.2-3.86-10.37-1.1-1.23-2.21-2.23-3.87-3.23-1.1-.66-3.71-1.81-5.2-1.91v9.35s-5.6.01-5.6.01l-.02-9.36c-.77.06-2.11.48-2.8.75-4.13,1.6-7.31,4.71-9,8.76-.59,1.41-1.31,4.16-1.14,6"/>
  <path class="cls-1" d="M146.65,237.5c-.88.18-.8.94-.79,1.84,0,1.02.46,1.22,1.45,1.22,8.7-.06,17.62,0,26.35,0,.71,0,10.12.06,10.56-.03.83-.17.77-.92.76-1.83,0-1.03-.43-1.23-1.44-1.22-3.08,0-36.28-.09-36.88.03"/>
  <path class="cls-1" d="M163.19,221.64v7.95c0,.64,0,.5.84.5h3.6c.09-2.34.02-6.16.01-8.64,0-1.97-.05-1.7-3.09-1.7-.54,0-1.02-.04-1.25.38-.17.31-.11,1.1-.11,1.51"/>
  <path class="cls-2" d="M275.57,238.47h12.69c.09-1.65-.77-3.3-1.56-4.18-.44-.5-.89-.9-1.56-1.3-.44-.27-1.49-.73-2.1-.77v3.77s-2.26,0-2.26,0v-3.77c-.32.02-.86.19-1.13.3-1.67.64-2.95,1.9-3.63,3.53-.24.57-.53,1.68-.46,2.42"/>
  <path class="cls-2" d="M274.36,238.74c-.36.07-.32.38-.32.74,0,.41.19.49.58.49,3.51-.03,7.1,0,10.62,0,.28,0,4.08.03,4.25-.01.34-.07.31-.37.31-.74,0-.42-.17-.49-.58-.49-1.24,0-14.62-.04-14.86.01"/>
  <path class="cls-2" d="M281.02,232.35v3.2c0,.26,0,.2.34.2h1.45c.04-.94,0-2.48,0-3.48,0-.79-.02-.69-1.25-.68-.22,0-.41-.02-.5.15-.07.12-.04.44-.04.61"/>
  <path class="cls-4" d="M213.81,272.93v-11.25h1.58v11.25h-1.58ZM214.62,268.57v-1.5h3.6c.52,0,.93-.18,1.24-.53.31-.36.47-.82.47-1.4s-.16-1.06-.47-1.42c-.31-.36-.73-.53-1.24-.53h-3.6v-1.5h3.54c.68,0,1.27.14,1.78.43.51.29.9.69,1.18,1.2.28.52.42,1.12.42,1.82s-.14,1.29-.42,1.81c-.28.52-.67.92-1.18,1.2-.51.28-1.1.43-1.78.43h-3.54Z"/>
  <path class="cls-4" d="M226.51,273.05c-.79,0-1.49-.17-2.08-.51s-1.05-.83-1.38-1.45-.49-1.35-.49-2.18v-3.19c0-.84.16-1.56.49-2.19.33-.62.79-1.1,1.38-1.45.59-.34,1.29-.51,2.08-.51s1.49.17,2.08.51c.59.34,1.05.83,1.38,1.45.33.62.49,1.35.49,2.19v3.19c0,.83-.16,1.56-.49,2.18-.33.62-.79,1.11-1.38,1.45-.59.34-1.29.51-2.08.51ZM226.51,271.49c.71,0,1.27-.23,1.7-.7.43-.46.64-1.08.64-1.84v-3.3c0-.77-.21-1.38-.64-1.84s-.99-.69-1.7-.69-1.27.23-1.69.69c-.43.46-.64,1.08-.64,1.84v3.3c0,.76.21,1.38.64,1.84.43.46.99.7,1.69.7Z"/>
  <path class="cls-4" d="M234.75,270.51l2.3-8.82h1.08l2.31,8.82,1.99-8.82h1.64l-2.75,11.25h-1.61l-2.07-7.86-2.17,7.86h-1.61l-2.75-11.25h1.64l1.99,8.82Z"/>
  <path class="cls-4" d="M245.04,272.93v-11.25h1.58v11.25h-1.58ZM245.81,263.19v-1.5h6.46v1.5h-6.46ZM245.81,268.1v-1.5h5.61v1.5h-5.61ZM245.81,272.93v-1.5h6.46v1.5h-6.46Z"/>
  <path class="cls-4" d="M253.78,272.93v-11.25h1.58v11.25h-1.58ZM254.47,268.18v-1.5h3.84c.46,0,.83-.16,1.11-.48s.42-.74.42-1.27-.14-.95-.42-1.27-.65-.48-1.11-.48h-3.84v-1.5h3.77c.66,0,1.23.14,1.72.41s.87.65,1.14,1.13c.27.48.41,1.05.41,1.71s-.14,1.22-.41,1.71c-.27.49-.65.87-1.14,1.14-.49.27-1.06.41-1.71.41h-3.77ZM260.11,272.93l-2.58-5.1,1.57-.36,2.88,5.46h-1.87Z"/>
  <path class="cls-4" d="M272.52,272.93v-11.25h1.58v11.25h-1.58ZM273.29,263.19v-1.5h6.46v1.5h-6.46ZM273.29,268.1v-1.5h5.61v1.5h-5.61ZM273.29,272.93v-1.5h6.46v1.5h-6.46Z"/>
  <path class="cls-4" d="M281.26,272.93v-11.24h1.43l5.5,8.69-.19.2v-8.9h1.56v11.24h-1.45l-5.48-8.56.19-.2v8.76h-1.56Z"/>
  <path class="cls-4" d="M295.41,266.88h3.9v1.96c0,.85-.16,1.58-.49,2.22-.33.63-.79,1.12-1.37,1.47-.59.35-1.28.52-2.07.52s-1.5-.16-2.1-.49c-.6-.33-1.06-.79-1.39-1.38-.33-.6-.5-1.29-.5-2.08v-3.32c0-.85.16-1.58.49-2.21.33-.63.79-1.12,1.37-1.47s1.28-.52,2.07-.52c.66,0,1.25.14,1.79.42.54.28.99.67,1.36,1.17.37.5.61,1.09.74,1.76h-1.71c-.14-.58-.43-1.03-.84-1.34s-.86-.46-1.34-.46c-.7,0-1.26.24-1.69.73-.42.49-.63,1.13-.63,1.93v3.32c0,.73.22,1.32.65,1.76s1.01.66,1.72.66,1.26-.23,1.69-.7c.42-.46.63-1.11.63-1.94v-.49h-2.28v-1.51Z"/>
  <path class="cls-4" d="M302.55,261.69v11.25h-1.58v-11.25h1.58Z"/>
  <path class="cls-4" d="M304.6,272.93v-11.24h1.43l5.5,8.69-.19.2v-8.9h1.56v11.24h-1.45l-5.48-8.56.19-.2v8.76h-1.56Z"/>
  <path class="cls-4" d="M314.96,272.93v-11.25h1.58v11.25h-1.58ZM315.73,263.19v-1.5h6.46v1.5h-6.46ZM315.73,268.1v-1.5h5.61v1.5h-5.61ZM315.73,272.93v-1.5h6.46v1.5h-6.46Z"/>
  <path class="cls-4" d="M323.7,272.93v-11.25h1.58v11.25h-1.58ZM324.47,263.19v-1.5h6.46v1.5h-6.46ZM324.47,268.1v-1.5h5.61v1.5h-5.61ZM324.47,272.93v-1.5h6.46v1.5h-6.46Z"/>
  <path class="cls-4" d="M332.44,272.93v-11.25h1.58v11.25h-1.58ZM333.13,268.18v-1.5h3.84c.46,0,.83-.16,1.11-.48s.42-.74.42-1.27-.14-.95-.42-1.27-.65-.48-1.11-.48h-3.84v-1.5h3.77c.66,0,1.23.14,1.72.41s.87.65,1.14,1.13c.27.48.41,1.05.41,1.71s-.14,1.22-.41,1.71c-.27.49-.65.87-1.14,1.14-.49.27-1.06.41-1.71.41h-3.77ZM338.77,272.93l-2.58-5.1,1.57-.36,2.88,5.46h-1.87Z"/>
  <path class="cls-4" d="M343.61,261.69v11.25h-1.58v-11.25h1.58Z"/>
  <path class="cls-4" d="M345.66,272.93v-11.24h1.43l5.5,8.69-.19.2v-8.9h1.56v11.24h-1.45l-5.48-8.56.19-.2v8.76h-1.56Z"/>
  <path class="cls-4" d="M359.82,266.88h3.9v1.96c0,.85-.16,1.58-.49,2.22-.33.63-.79,1.12-1.37,1.47-.59.35-1.28.52-2.07.52s-1.5-.16-2.1-.49c-.6-.33-1.06-.79-1.39-1.38-.33-.6-.5-1.29-.5-2.08v-3.32c0-.85.16-1.58.49-2.21.33-.63.79-1.12,1.37-1.47s1.28-.52,2.07-.52c.66,0,1.25.14,1.79.42.54.28.99.67,1.36,1.17.37.5.61,1.09.74,1.76h-1.71c-.14-.58-.43-1.03-.84-1.34s-.86-.46-1.34-.46c-.7,0-1.26.24-1.69.73-.42.49-.63,1.13-.63,1.93v3.32c0,.73.22,1.32.65,1.76s1.01.66,1.72.66,1.26-.23,1.69-.7c.42-.46.63-1.11.63-1.94v-.49h-2.28v-1.51Z"/>
</svg>