<?xml version="1.0" encoding="UTF-8"?>
<svg id="Layer_1" data-name="Layer 1" xmlns="http://www.w3.org/2000/svg" version="1.1" viewBox="0 0 250 150">
  <defs>
    <style>
      .cls-1 {
        fill: #fff;
      }

      .cls-1, .cls-2, .cls-3 {
        fill-rule: evenodd;
        stroke-width: 0px;
      }

      .cls-2 {
        fill: #231f20;
      }

      .cls-3 {
        fill: #f48120;
      }

      .cls-4 {
        fill: none;
        stroke: #fff;
        stroke-miterlimit: 2.61;
        stroke-width: .5px;
      }
    </style>
  </defs>
  <path class="cls-3" d="M154.38,65.77c.92,2.91-1.04,5.34-1.04,8.56,0,16.06-11.82,27.82-25.59,31.23-.87.07-1.74.11-2.63.11-16.94,0-30.67-13.73-30.67-30.67,0-3.83.7-7.49,1.98-10.87l28.76,40.89,28.74-38.64.45-.61ZM125.12,44.33c10.27,0,19.36,5.05,24.93,12.8l-24.45,33.42-20.42-28.56h-7.83c4.9-10.43,15.49-17.65,27.78-17.65Z"/>
  <path class="cls-4" d="M154.38,65.77c.92,2.91-1.04,5.34-1.04,8.56,0,16.06-11.82,27.82-25.59,31.23-.87.07-1.74.11-2.63.11-16.94,0-30.67-13.73-30.67-30.67,0-3.83.7-7.49,1.98-10.87l28.76,40.89,28.74-38.64.45-.61ZM125.12,44.33c10.27,0,19.36,5.05,24.93,12.8l-24.45,33.42-20.42-28.56h-7.83c4.9-10.43,15.49-17.65,27.78-17.65Z"/>
  <path class="cls-2" d="M154.16,66.2l-29,39.03c17.73.52,35.57-19.34,29-39.03"/>
  <path class="cls-1" d="M125.58,69.64c2.58,0,4.67,2.09,4.67,4.67s-2.09,4.67-4.67,4.67-4.67-2.09-4.67-4.67,2.09-4.67,4.67-4.67"/>
  <path class="cls-1" d="M111.58,63.15h28.33c.2-3.68-1.73-7.38-3.47-9.33-.99-1.11-1.99-2-3.49-2.91-.99-.6-3.34-1.63-4.68-1.72v8.41s-5.04.01-5.04.01l-.02-8.42c-.69.05-1.9.44-2.52.67-3.72,1.44-6.58,4.24-8.1,7.88-.53,1.27-1.18,3.74-1.02,5.39"/>
  <path class="cls-1" d="M108.86,63.75c-.8.16-.72.84-.71,1.65,0,.92.42,1.1,1.3,1.09,7.83-.06,15.85,0,23.7,0,.63,0,9.11.06,9.5-.03.75-.16.69-.82.68-1.65,0-.93-.39-1.1-1.29-1.1-2.77,0-32.64-.08-33.18.03"/>
  <path class="cls-1" d="M123.74,49.49v7.15c0,.58,0,.45.76.45h3.24c.08-2.11.01-5.54.01-7.78,0-1.77-.05-1.53-2.78-1.53-.48,0-.92-.04-1.13.35-.15.28-.1.99-.1,1.36"/>
</svg>